<svg xmlns="http://www.w3.org/2000/svg" width="2476.84521484375" height="1305.0655517578125" viewBox="-888.88623046875 -317.0613098144531 2476.84521484375 1305.0655517578125"><title>Neo4j Graph Visualization</title><desc>Created using Neo4j (http://www.neo4j.com/)</desc><g class="layer relationships"><g class="relationship" transform="translate(-492.61042023448573 -49.43113651371928) rotate(420.9204124490618)"><path class="outline" fill="#4C8EDA" stroke="none" d="M 40 1 L 178.1148594254216 1 L 178.1148594254216 -1 L 40 -1 Z M 265.6187656754216 1 L 403.7336251008432 1 L 403.7336251008432 4 L 411.7336251008432 0 L 403.7336251008432 -4 L 403.7336251008432 -1 L 265.6187656754216 -1 Z"/><text text-anchor="middle" pointer-events="none" font-size="8px" fill="#000000" x="221.8668125504216" y="3" font-family="sans-serif">LEARNING_PATH_OA</text></g><g class="relationship" transform="translate(-154.47526922431229 -94.52496451720572) rotate(465.086866162168)"><path class="outline" fill="#FFC454" stroke="none" d="M 40 1 L 166.26050018060775 1 L 166.26050018060775 -1 L 40 -1 Z M 281.3269064306078 1 L 407.5874066112155 1 L 407.5874066112155 4 L 415.5874066112155 0 L 407.5874066112155 -4 L 407.5874066112155 -1 L 281.3269064306078 -1 Z"/><text text-anchor="middle" pointer-events="none" font-size="8px" fill="#000000" x="223.79370330560775" y="3" transform="rotate(180 223.79370330560775 0)" font-family="sans-serif">LEARNING_PATH_WEB_DEV</text></g><g class="relationship" transform="translate(486.59129925720606 487.9721918791273) rotate(190.6326775935317)"><path class="outline" fill="#DA7194" stroke="none" d="M 40 1 L 312.9204969505725 1 L 312.9204969505725 -1 L 40 -1 Z M 451.9986219505725 1 L 724.919118901145 1 L 724.919118901145 4 L 732.919118901145 0 L 724.919118901145 -4 L 724.919118901145 -1 L 451.9986219505725 -1 Z"/><text text-anchor="middle" pointer-events="none" font-size="8px" fill="#000000" x="382.4595594505725" y="3" transform="rotate(180 382.4595594505725 0)" font-family="sans-serif">LEARNING_PATH_DATA_ANALYSIS</text></g><g class="relationship" transform="translate(990.3956723399101 61.36065055384691) rotate(527.3316209537473)"><path class="outline" fill="#569480" stroke="none" d="M 40 1 L 601.7370381620735 1 L 601.7370381620735 -1 L 40 -1 Z M 685.2409444120735 1 L 1246.977982574147 1 L 1246.977982574147 4 L 1254.977982574147 0 L 1246.977982574147 -4 L 1246.977982574147 -1 L 685.2409444120735 -1 Z"/><text text-anchor="middle" pointer-events="none" font-size="8px" fill="#000000" x="643.4889912870735" y="3" transform="rotate(180 643.4889912870735 0)" font-family="sans-serif">LEARNING_PATH_AI</text></g><g class="relationship" transform="translate(-273.0570117163784 345.3594014362552) rotate(522.8151702624756)"><path class="outline" fill="#FFC454" stroke="none" d="M 38.37821400646021,-11.318687630389897 L 38.89585209666525,-9.386835977811762 A 564.190892257921 564.190892257921 0 0 1 124.52520664466678,-25.36941398504689 L 124.31111600878279,-27.35792227007539 A 566.190892257921 566.190892257921 0 0 0 38.37821400646021,-11.318687630389897 Z M 239.3804281524001,-27.98580731731431 L 239.18805053272908,-25.995081105237432 A 564.190892257921 564.190892257921 0 0 1 324.98672140483785,-10.94791404149198 L 324.24193347982606,-8.041835765402936 L 332.9845261160792,-9.930505666823612 L 326.2280346131908,-15.79137783497372 L 325.483246688179,-12.885299558884675 A 566.190892257921 566.190892257921 0 0 0 239.3804281524001,-27.98580731731431"/><text text-anchor="middle" pointer-events="none" font-size="8px" fill="#000000" x="181.835235991027" y="-26.602760559085027" transform="rotate(180 181.835235991027 -29.602760559085027)" font-family="sans-serif">LEARNING_PATH_WEB_DEV</text></g><g class="relationship" transform="translate(-273.0570117163784 345.3594014362552) rotate(522.8151702624756)"><path class="outline" fill="#4C8EDA" stroke="none" d="M 38.37821400646021,11.318687630389897 L 38.89585209666525,9.386835977811762 A 564.190892257921 564.190892257921 0 0 0 138.219625655603,26.675128904046915 L 138.05408035853554,28.668265817211363 A 566.190892257921 566.190892257921 0 0 1 38.37821400646021,11.318687630389897 Z M 225.62398258576638,29.146098100835616 L 225.4801979256598,27.151273303637026 A 564.190892257921 564.190892257921 0 0 0 324.98672140483785,10.94791404149198 L 324.24193347982606,8.041835765402936 L 332.9845261160792,9.930505666823612 L 326.2280346131908,15.79137783497372 L 325.483246688179,12.885299558884675 A 566.190892257921 566.190892257921 0 0 1 225.62398258576638,29.146098100835616"/><text text-anchor="middle" pointer-events="none" font-size="8px" fill="#000000" x="181.83523599102728" y="32.60276055908503" transform="rotate(180 181.83523599102728 29.602760559085027)" font-family="sans-serif">LEARNING_PATH_OA</text></g><g class="relationship" transform="translate(-273.0570117163784 345.3594014362552) rotate(470.05649103932546)"><path class="outline" fill="#569480" stroke="none" d="M 40 1 L 42.13409366852447 1 L 42.13409366852447 -1 L 40 -1 Z M 115.85284366852447 1 L 117.98693733704894 1 L 117.98693733704894 4 L 125.98693733704894 0 L 117.98693733704894 -4 L 117.98693733704894 -1 L 115.85284366852447 -1 Z"/><text text-anchor="middle" pointer-events="none" font-size="8px" fill="#000000" x="78.99346866852447" y="3" transform="rotate(180 78.99346866852447 0)" font-family="sans-serif">LEARNING_PAT…</text></g><g class="relationship" transform="translate(-273.0570117163784 345.3594014362552) rotate(446.0815578142791)"><path class="outline" fill="#DA7194" stroke="none" d="M 40 1 L 226.0820012528862 1 L 226.0820012528862 -1 L 40 -1 Z M 365.1601262528862 1 L 551.2421275057724 1 L 551.2421275057724 4 L 559.2421275057724 0 L 551.2421275057724 -4 L 551.2421275057724 -1 L 365.1601262528862 -1 Z"/><text text-anchor="middle" pointer-events="none" font-size="8px" fill="#000000" x="295.6210637528862" y="3" font-family="sans-serif">LEARNING_PATH_DATA_ANALYSIS</text></g><g class="relationship" transform="translate(-273.0570117163784 345.3594014362552) rotate(433.225592600132)"><path class="outline" fill="#DA7194" stroke="none" d="M 40 1 L 208.0100686901348 1 L 208.0100686901348 -1 L 40 -1 Z M 347.0881936901348 1 L 515.0982623802696 1 L 515.0982623802696 4 L 523.0982623802696 0 L 515.0982623802696 -4 L 515.0982623802696 -1 L 347.0881936901348 -1 Z"/><text text-anchor="middle" pointer-events="none" font-size="8px" fill="#000000" x="277.5491311901348" y="3" font-family="sans-serif">LEARNING_PATH_DATA_ANALYSIS</text></g><g class="relationship" transform="translate(-273.0570117163784 345.3594014362552) rotate(409.6326499093719)"><path class="outline" fill="#DA7194" stroke="none" d="M 40 1 L 200.76397376886018 1 L 200.76397376886018 -1 L 40 -1 Z M 339.8420987688602 1 L 500.60607253772037 1 L 500.60607253772037 4 L 508.60607253772037 0 L 500.60607253772037 -4 L 500.60607253772037 -1 L 339.8420987688602 -1 Z"/><text text-anchor="middle" pointer-events="none" font-size="8px" fill="#000000" x="270.3030362688602" y="3" font-family="sans-serif">LEARNING_PATH_DATA_ANALYSIS</text></g><g class="relationship" transform="translate(-273.0570117163784 345.3594014362552) rotate(392.11771430016876)"><path class="outline" fill="#DA7194" stroke="none" d="M 40 1 L 162.69435522330684 1 L 162.69435522330684 -1 L 40 -1 Z M 301.77248022330684 1 L 424.4668354466137 1 L 424.4668354466137 4 L 432.4668354466137 0 L 424.4668354466137 -4 L 424.4668354466137 -1 L 301.77248022330684 -1 Z"/><text text-anchor="middle" pointer-events="none" font-size="8px" fill="#000000" x="232.23341772330684" y="3" font-family="sans-serif">LEARNING_PATH_DATA_ANALYSIS</text></g><g class="relationship" transform="translate(-628.1938660136119 455.18959012016444) rotate(499.076784631425)"><path class="outline" fill="#FFC454" stroke="none" d="M 40 1 L 81.85997363861122 1 L 81.85997363861122 -1 L 40 -1 Z M 196.92637988861122 1 L 238.78635352722245 1 L 238.78635352722245 4 L 246.78635352722245 0 L 238.78635352722245 -4 L 238.78635352722245 -1 L 196.92637988861122 -1 Z"/><text text-anchor="middle" pointer-events="none" font-size="8px" fill="#000000" x="139.39317676361122" y="3" transform="rotate(180 139.39317676361122 0)" font-family="sans-serif">LEARNING_PATH_WEB_DEV</text></g><g class="relationship" transform="translate(-628.1938660136119 455.18959012016444) rotate(454.36218371695753)"><path class="outline" fill="#FFC454" stroke="none" d="M 40 1 L 42.81143017415009 1 L 42.81143017415009 -1 L 40 -1 Z M 149.42861767415008 1 L 152.24004784830018 1 L 152.24004784830018 4 L 160.24004784830018 0 L 152.24004784830018 -4 L 152.24004784830018 -1 L 149.42861767415008 -1 Z"/><text text-anchor="middle" pointer-events="none" font-size="8px" fill="#000000" x="96.12002392415009" y="3" transform="rotate(180 96.12002392415009 0)" font-family="sans-serif">LEARNING_PATH_WEB_…</text></g><g class="relationship" transform="translate(-329.98164614633816 501.2800522864516) rotate(501.918993989664)"><path class="outline" fill="#569480" stroke="none" d="M 40 1 L 64.64149402590337 1 L 64.64149402590337 -1 L 40 -1 Z M 148.14540027590337 1 L 172.78689430180674 1 L 172.78689430180674 4 L 180.78689430180674 0 L 172.78689430180674 -4 L 172.78689430180674 -1 L 148.14540027590337 -1 Z"/><text text-anchor="middle" pointer-events="none" font-size="8px" fill="#000000" x="106.39344715090337" y="3" transform="rotate(180 106.39344715090337 0)" font-family="sans-serif">LEARNING_PATH_AI</text></g><g class="relationship" transform="translate(-503.7717385414166 637.455881568844) rotate(382.790975492632)"><path class="outline" fill="#569480" stroke="none" d="M 40 1 L 41.36305050634536 1 L 41.36305050634536 -1 L 40 -1 Z M 110.78883175634536 1 L 112.15188226269072 1 L 112.15188226269072 4 L 120.15188226269072 0 L 112.15188226269072 -4 L 112.15188226269072 -1 L 110.78883175634536 -1 Z"/><text text-anchor="middle" pointer-events="none" font-size="8px" fill="#000000" x="76.07594113134536" y="3" font-family="sans-serif">LEARNING_PA…</text></g><g class="relationship" transform="translate(-356.1238463373697 699.4939772841776) rotate(423.0294757603825)"><path class="outline" fill="#569480" stroke="none" d="M 40 1 L 90.97145171890813 1 L 90.97145171890813 -1 L 40 -1 Z M 174.47535796890813 1 L 225.44680968781626 1 L 225.44680968781626 4 L 233.44680968781626 0 L 225.44680968781626 -4 L 225.44680968781626 -1 L 174.47535796890813 -1 Z"/><text text-anchor="middle" pointer-events="none" font-size="8px" fill="#000000" x="132.72340484390813" y="3" font-family="sans-serif">LEARNING_PATH_AI</text></g><g class="relationship" transform="translate(-356.1238463373697 699.4939772841776) rotate(396.9919206177084)"><path class="outline" fill="#569480" stroke="none" d="M 40 1 L 107.9810333086902 1 L 107.9810333086902 -1 L 40 -1 Z M 191.4849395586902 1 L 259.4659728673804 1 L 259.4659728673804 4 L 267.4659728673804 0 L 259.4659728673804 -4 L 259.4659728673804 -1 L 191.4849395586902 -1 Z"/><text text-anchor="middle" pointer-events="none" font-size="8px" fill="#000000" x="149.7329864336902" y="3" font-family="sans-serif">LEARNING_PATH_AI</text></g><g class="relationship" transform="translate(-844.8862266334186 643.048136421515) rotate(386.09661388110436)"><path class="outline" fill="#FFC454" stroke="none" d="M 40 1 L 279.6375763553684 1 L 279.6375763553684 -1 L 40 -1 Z M 394.7039826053684 1 L 634.3415589607368 1 L 634.3415589607368 4 L 642.3415589607368 0 L 634.3415589607368 -4 L 634.3415589607368 -1 L 394.7039826053684 -1 Z"/><text text-anchor="middle" pointer-events="none" font-size="8px" fill="#000000" x="337.1707794803684" y="3" font-family="sans-serif">LEARNING_PATH_WEB_DEV</text></g><g class="relationship" transform="translate(-643.4243118886889 654.8495767993584) rotate(395.03210458870944)"><path class="outline" fill="#FFC454" stroke="none" d="M 40 1 L 189.6282701036939 1 L 189.6282701036939 -1 L 40 -1 Z M 304.6946763536939 1 L 454.3229464573878 1 L 454.3229464573878 4 L 462.3229464573878 0 L 454.3229464573878 -4 L 454.3229464573878 -1 L 304.6946763536939 -1 Z"/><text text-anchor="middle" pointer-events="none" font-size="8px" fill="#000000" x="247.1614732286939" y="3" font-family="sans-serif">LEARNING_PATH_WEB_DEV</text></g><g class="relationship" transform="translate(486.59129925720606 487.9721918791273) rotate(240.37612078899355)"><path class="outline" fill="#DA7194" stroke="none" d="M 40 1 L 237.63301489615486 1 L 237.63301489615486 -1 L 40 -1 Z M 376.71113989615486 1 L 574.3441547923097 1 L 574.3441547923097 4 L 582.3441547923097 0 L 574.3441547923097 -4 L 574.3441547923097 -1 L 376.71113989615486 -1 Z"/><text text-anchor="middle" pointer-events="none" font-size="8px" fill="#000000" x="307.17207739615486" y="3" transform="rotate(180 307.17207739615486 0)" font-family="sans-serif">LEARNING_PATH_DATA_ANALYSIS</text></g><g class="relationship" transform="translate(486.59129925720606 487.9721918791273) rotate(219.0038777942139)"><path class="outline" fill="#DA7194" stroke="none" d="M 40 1 L 65.78126123133006 1 L 65.78126123133006 -1 L 40 -1 Z M 204.85938623133006 1 L 230.64064746266013 1 L 230.64064746266013 4 L 238.64064746266013 0 L 230.64064746266013 -4 L 230.64064746266013 -1 L 204.85938623133006 -1 Z"/><text text-anchor="middle" pointer-events="none" font-size="8px" fill="#000000" x="135.32032373133006" y="3" transform="rotate(180 135.32032373133006 0)" font-family="sans-serif">LEARNING_PATH_DATA_ANALYSIS</text></g><g class="relationship" transform="translate(486.59129925720606 487.9721918791273) rotate(286.44024116625553)"><path class="outline" fill="#DA7194" stroke="none" d="M 40 1 L 49.856600778957656 1 L 49.856600778957656 -1 L 40 -1 Z M 188.93472577895767 1 L 198.7913265579153 1 L 198.7913265579153 4 L 206.7913265579153 0 L 198.7913265579153 -4 L 198.7913265579153 -1 L 188.93472577895767 -1 Z"/><text text-anchor="middle" pointer-events="none" font-size="8px" fill="#000000" x="119.39566327895766" y="3" font-family="sans-serif">LEARNING_PATH_DATA_ANALYSIS</text></g><g class="relationship" transform="translate(486.59129925720606 487.9721918791273) rotate(272.7895900073082)"><path class="outline" fill="#DA7194" stroke="none" d="M 40 1 L 201.23491769778775 1 L 201.23491769778775 -1 L 40 -1 Z M 340.31304269778775 1 L 501.5479603955755 1 L 501.5479603955755 4 L 509.5479603955755 0 L 501.5479603955755 -4 L 501.5479603955755 -1 L 340.31304269778775 -1 Z"/><text text-anchor="middle" pointer-events="none" font-size="8px" fill="#000000" x="270.77398019778775" y="3" font-family="sans-serif">LEARNING_PATH_DATA_ANALYSIS</text></g><g class="relationship" transform="translate(-154.47526922431229 -94.52496451720572) rotate(367.09461577091605)"><path class="outline" fill="#FFC454" stroke="none" d="M 40 1 L 106.47274451243268 1 L 106.47274451243268 -1 L 40 -1 Z M 221.53915076243268 1 L 288.01189527486537 1 L 288.01189527486537 4 L 296.01189527486537 0 L 288.01189527486537 -4 L 288.01189527486537 -1 L 221.53915076243268 -1 Z"/><text text-anchor="middle" pointer-events="none" font-size="8px" fill="#000000" x="164.00594763743268" y="3" font-family="sans-serif">LEARNING_PATH_WEB_DEV</text></g><g class="relationship" transform="translate(159.676820092129 192.1262657835) rotate(274.4984542528589)"><path class="outline" fill="#57C7E3" stroke="none" d="M 40 1 L 59.57340627257348 1 L 59.57340627257348 -1 L 40 -1 Z M 178.3351250225735 1 L 197.90853129514696 1 L 197.90853129514696 4 L 205.90853129514696 0 L 197.90853129514696 -4 L 197.90853129514696 -1 L 178.3351250225735 -1 Z"/><text text-anchor="middle" pointer-events="none" font-size="8px" fill="#000000" x="118.95426564757348" y="3" font-family="sans-serif">LEARNING_PATH_CRAWLING</text></g><g class="relationship" transform="translate(981.4169931811467 335.61640274632464) rotate(205.84166650521996)"><path class="outline" fill="#A5ABB6" stroke="none" d="M 40 0.5 L 374.1753738508854 0.5 L 374.1753738508854 -0.5 L 40 -0.5 Z M 510.4370926008854 0.5 L 844.6124664517708 0.5 L 844.6124664517708 3.5 L 851.6124664517708 0 L 844.6124664517708 -3.5 L 844.6124664517708 -0.5 L 510.4370926008854 -0.5 Z"/><text text-anchor="middle" pointer-events="none" font-size="8px" fill="#000000" x="442.3062332258854" y="3" transform="rotate(180 442.3062332258854 0)" font-family="sans-serif">RESEARCH_DIRECTION_Big_Data</text></g><g class="relationship" transform="translate(159.676820092129 192.1262657835) rotate(529.6219446676799)"><path class="outline" fill="#57C7E3" stroke="none" d="M 40 1 L 41.30172754193393 1 L 41.30172754193393 -1 L 40 -1 Z M 115.02047754193393 1 L 116.32220508386786 1 L 116.32220508386786 4 L 124.32220508386786 0 L 116.32220508386786 -4 L 116.32220508386786 -1 L 115.02047754193393 -1 Z"/><text text-anchor="middle" pointer-events="none" font-size="8px" fill="#000000" x="78.16110254193393" y="3" transform="rotate(180 78.16110254193393 0)" font-family="sans-serif">LEARNING_PAT…</text></g><g class="relationship" transform="translate(159.676820092129 192.1262657835) rotate(223.24916795211163)"><path class="outline" fill="#57C7E3" stroke="none" d="M 40 1 L 41.5583448267487 1 L 41.5583448267487 -1 L 40 -1 Z M 76.45678232674871 1 L 78.0151271534974 1 L 78.0151271534974 4 L 86.0151271534974 0 L 78.0151271534974 -4 L 78.0151271534974 -1 L 76.45678232674871 -1 Z"/><text text-anchor="middle" pointer-events="none" font-size="8px" fill="#000000" x="59.0075635767487" y="3" transform="rotate(180 59.0075635767487 0)" font-family="sans-serif">LEAR…</text></g><g class="relationship" transform="translate(67.88980584013368 105.7841770537494) rotate(187.41918016148668)"><path class="outline" fill="#57C7E3" stroke="none" d="M 40 1 L 40.389632820914244 1 L 40.389632820914244 -1 L 40 -1 Z M 95.28807032091424 1 L 95.67770314182849 1 L 95.67770314182849 4 L 103.67770314182849 0 L 95.67770314182849 -4 L 95.67770314182849 -1 L 95.28807032091424 -1 Z"/><text text-anchor="middle" pointer-events="none" font-size="8px" fill="#000000" x="67.83885157091424" y="3" transform="rotate(180 67.83885157091424 0)" font-family="sans-serif">LEARNING…</text></g><g class="relationship" transform="translate(67.88980584013368 105.7841770537494) rotate(236.78718892721224)"><path class="outline" fill="#57C7E3" stroke="none" d="M 40 1 L 43.04022474263719 1 L 43.04022474263719 -1 L 40 -1 Z M 91.71600599263719 1 L 94.75623073527439 1 L 94.75623073527439 4 L 102.75623073527439 0 L 94.75623073527439 -4 L 94.75623073527439 -1 L 91.71600599263719 -1 Z"/><text text-anchor="middle" pointer-events="none" font-size="8px" fill="#000000" x="67.37811536763719" y="3" transform="rotate(180 67.37811536763719 0)" font-family="sans-serif">LEARNIN…</text></g><g class="relationship" transform="translate(981.4169931811467 335.61640274632464) rotate(496.46714486339044)"><path class="outline" fill="#A5ABB6" stroke="none" d="M 40 0.5 L 83.425991224455 0.5 L 83.425991224455 -0.5 L 40 -0.5 Z M 219.687709974455 0.5 L 263.11370119891 0.5 L 263.11370119891 3.5 L 270.11370119891 0 L 263.11370119891 -3.5 L 263.11370119891 -0.5 L 219.687709974455 -0.5 Z"/><text text-anchor="middle" pointer-events="none" font-size="8px" fill="#000000" x="151.556850599455" y="3" transform="rotate(180 151.556850599455 0)" font-family="sans-serif">RESEARCH_DIRECTION_Big_Data</text></g><g class="relationship" transform="translate(981.4169931811467 335.61640274632464) rotate(420.8340629058865)"><path class="outline" fill="#A5ABB6" stroke="none" d="M 40 0.5 L 68.18747005166526 0.5 L 68.18747005166526 -0.5 L 40 -0.5 Z M 204.44918880166526 0.5 L 232.63665885333052 0.5 L 232.63665885333052 3.5 L 239.63665885333052 0 L 232.63665885333052 -3.5 L 232.63665885333052 -0.5 L 204.44918880166526 -0.5 Z"/><text text-anchor="middle" pointer-events="none" font-size="8px" fill="#000000" x="136.31832942666526" y="3" font-family="sans-serif">RESEARCH_DIRECTION_Big_Data</text></g><g class="relationship" transform="translate(756.5909083366581 549.2135451541426) rotate(522.382638081353)"><path class="outline" fill="#569480" stroke="none" d="M 40 1 L 295.32541131366645 1 L 295.32541131366645 -1 L 40 -1 Z M 404.18088006366645 1 L 659.5062913773329 1 L 659.5062913773329 4 L 667.5062913773329 0 L 659.5062913773329 -4 L 659.5062913773329 -1 L 404.18088006366645 -1 Z"/><text text-anchor="middle" pointer-events="none" font-size="8px" fill="#000000" x="349.75314568866645" y="3" transform="rotate(180 349.75314568866645 0)" font-family="sans-serif">LEARNING_PATH_Big_Data</text></g><g class="relationship" transform="translate(756.5909083366581 549.2135451541426) rotate(535.6994288816159)"><path class="outline" fill="#569480" stroke="none" d="M 40 1 L 257.20524083051197 1 L 257.20524083051197 -1 L 40 -1 Z M 366.06070958051197 1 L 583.2659504110239 1 L 583.2659504110239 4 L 591.2659504110239 0 L 583.2659504110239 -4 L 583.2659504110239 -1 L 366.06070958051197 -1 Z"/><text text-anchor="middle" pointer-events="none" font-size="8px" fill="#000000" x="311.63297520551197" y="3" transform="rotate(180 311.63297520551197 0)" font-family="sans-serif">LEARNING_PATH_Big_Data</text></g><g class="relationship" transform="translate(756.5909083366581 549.2135451541426) rotate(488.67378227563324)"><path class="outline" fill="#569480" stroke="none" d="M 40 1 L 40.738429918447565 1 L 40.738429918447565 -1 L 40 -1 Z M 110.16421116844757 1 L 110.90264108689513 1 L 110.90264108689513 4 L 118.90264108689513 0 L 110.90264108689513 -4 L 110.90264108689513 -1 L 110.16421116844757 -1 Z"/><text text-anchor="middle" pointer-events="none" font-size="8px" fill="#000000" x="75.45132054344757" y="3" transform="rotate(180 75.45132054344757 0)" font-family="sans-serif">LEARNING_PA…</text></g><g class="relationship" transform="translate(756.5909083366581 549.2135451541426) rotate(436.05677120109704)"><path class="outline" fill="#569480" stroke="none" d="M 40 1 L 80.62771034787463 1 L 80.62771034787463 -1 L 40 -1 Z M 189.48317909787463 1 L 230.11088944574925 1 L 230.11088944574925 4 L 238.11088944574925 0 L 230.11088944574925 -4 L 230.11088944574925 -1 L 189.48317909787463 -1 Z"/><text text-anchor="middle" pointer-events="none" font-size="8px" fill="#000000" x="135.05544472287463" y="3" font-family="sans-serif">LEARNING_PATH_Big_Data</text></g><g class="relationship" transform="translate(657.2949556384441 673.2714474503875) rotate(452.21192825438874)"><path class="outline" fill="#569480" stroke="none" d="M 40 1 L 73.44953314071316 1 L 73.44953314071316 -1 L 40 -1 Z M 182.30500189071316 1 L 215.75453503142631 1 L 215.75453503142631 4 L 223.75453503142631 0 L 215.75453503142631 -4 L 215.75453503142631 -1 L 182.30500189071316 -1 Z"/><text text-anchor="middle" pointer-events="none" font-size="8px" fill="#000000" x="127.87726751571316" y="3" transform="rotate(180 127.87726751571316 0)" font-family="sans-serif">LEARNING_PATH_Big_Data</text></g><g class="relationship" transform="translate(1117.695293692424 579.7984778141149) rotate(444.3670395521733)"><path class="outline" fill="#569480" stroke="none" d="M 40 1 L 41.49593899752897 1 L 41.49593899752897 -1 L 40 -1 Z M 125.44125149752897 1 L 126.93719049505793 1 L 126.93719049505793 4 L 134.93719049505793 0 L 126.93719049505793 -4 L 126.93719049505793 -1 L 125.44125149752897 -1 Z"/><text text-anchor="middle" pointer-events="none" font-size="8px" fill="#000000" x="83.46859524752897" y="3" font-family="sans-serif">LEARNING_PATH_…</text></g><g class="relationship" transform="translate(1134.866324718658 753.8909139272336) rotate(528.1624346441201)"><path class="outline" fill="#569480" stroke="none" d="M 40 1 L 100.58482690934116 1 L 100.58482690934116 -1 L 40 -1 Z M 209.44029565934116 1 L 270.0251225686823 1 L 270.0251225686823 4 L 278.0251225686823 0 L 270.0251225686823 -4 L 270.0251225686823 -1 L 209.44029565934116 -1 Z"/><text text-anchor="middle" pointer-events="none" font-size="8px" fill="#000000" x="155.01256128434116" y="3" transform="rotate(180 155.01256128434116 0)" font-family="sans-serif">LEARNING_PATH_Big_Data</text></g><g class="relationship" transform="translate(1134.866324718658 753.8909139272336) rotate(447.72156565633026)"><path class="outline" fill="#569480" stroke="none" d="M 40 1 L 41.15335581113767 1 L 41.15335581113767 -1 L 40 -1 Z M 141.11038706113766 1 L 142.26374287227534 1 L 142.26374287227534 4 L 150.26374287227534 0 L 142.26374287227534 -4 L 142.26374287227534 -1 L 141.11038706113766 -1 Z"/><text text-anchor="middle" pointer-events="none" font-size="8px" fill="#000000" x="91.13187143613767" y="3" font-family="sans-serif">LEARNING_PATH_Big_…</text></g><g class="relationship" transform="translate(1134.866324718658 753.8909139272336) rotate(402.5119935899503)"><path class="outline" fill="#569480" stroke="none" d="M 40 1 L 78.7375322614501 1 L 78.7375322614501 -1 L 40 -1 Z M 187.5930010114501 1 L 226.3305332729002 1 L 226.3305332729002 4 L 234.3305332729002 0 L 226.3305332729002 -4 L 226.3305332729002 -1 L 187.5930010114501 -1 Z"/><text text-anchor="middle" pointer-events="none" font-size="8px" fill="#000000" x="133.1652666364501" y="3" font-family="sans-serif">LEARNING_PATH_Big_Data</text></g><g class="relationship" transform="translate(1134.866324718658 753.8909139272336) rotate(372.9634041483698)"><path class="outline" fill="#569480" stroke="none" d="M 40 1 L 101.88477908841244 1 L 101.88477908841244 -1 L 40 -1 Z M 210.74024783841244 1 L 272.6250269268249 1 L 272.6250269268249 4 L 280.6250269268249 0 L 272.6250269268249 -4 L 272.6250269268249 -1 L 210.74024783841244 -1 Z"/><text text-anchor="middle" pointer-events="none" font-size="8px" fill="#000000" x="156.31251346341244" y="3" font-family="sans-serif">LEARNING_PATH_Big_Data</text></g><g class="relationship" transform="translate(1134.866324718658 753.8909139272336) rotate(351.80560205882443)"><path class="outline" fill="#569480" stroke="none" d="M 40 1 L 95.88123469624983 1 L 95.88123469624983 -1 L 40 -1 Z M 204.73670344624983 1 L 260.61793814249967 1 L 260.61793814249967 4 L 268.61793814249967 0 L 260.61793814249967 -4 L 260.61793814249967 -1 L 204.73670344624983 -1 Z"/><text text-anchor="middle" pointer-events="none" font-size="8px" fill="#000000" x="150.30896907124983" y="3" font-family="sans-serif">LEARNING_PATH_Big_Data</text></g><g class="relationship" transform="translate(990.3956723399101 61.36065055384691) rotate(199.25901328239559)"><path class="outline" fill="#569480" stroke="none" d="M 40 1 L 53.36909410949367 1 L 53.36909410949367 -1 L 40 -1 Z M 136.8730003594937 1 L 150.24209446898735 1 L 150.24209446898735 4 L 158.24209446898735 0 L 150.24209446898735 -4 L 150.24209446898735 -1 L 136.8730003594937 -1 Z"/><text text-anchor="middle" pointer-events="none" font-size="8px" fill="#000000" x="95.12104723449367" y="3" transform="rotate(180 95.12104723449367 0)" font-family="sans-serif">LEARNING_PATH_AI</text></g><g class="relationship" transform="translate(803.2477715385746 -4.027354807261929) rotate(191.10360406248066)"><path class="outline" fill="#569480" stroke="none" d="M 40 1 L 101.9687513318226 1 L 101.9687513318226 -1 L 40 -1 Z M 185.4726575818226 1 L 247.4414089136452 1 L 247.4414089136452 4 L 255.4414089136452 0 L 247.4414089136452 -4 L 247.4414089136452 -1 L 185.4726575818226 -1 Z"/><text text-anchor="middle" pointer-events="none" font-size="8px" fill="#000000" x="143.7207044568226" y="3" transform="rotate(180 143.7207044568226 0)" font-family="sans-serif">LEARNING_PATH_AI</text></g><g class="relationship" transform="translate(513.3368627490892 -60.924552152424326) rotate(345.4553823712681)"><path class="outline" fill="#569480" stroke="none" d="M 40 1 L 376.6059766664191 1 L 376.6059766664191 -1 L 40 -1 Z M 460.1098829164191 1 L 796.7158595828382 1 L 796.7158595828382 4 L 804.7158595828382 0 L 796.7158595828382 -4 L 796.7158595828382 -1 L 460.1098829164191 -1 Z"/><text text-anchor="middle" pointer-events="none" font-size="8px" fill="#000000" x="418.3579297914191" y="3" font-family="sans-serif">LEARNING_PATH_AI</text></g><g class="relationship" transform="translate(1330.981580839757 -273.06129675176436) rotate(529.1866859902842)"><path class="outline" fill="#569480" stroke="none" d="M 40 1 L 540.669540274948 1 L 540.669540274948 -1 L 40 -1 Z M 624.173446524948 1 L 1124.842986799896 1 L 1124.842986799896 4 L 1132.842986799896 0 L 1124.842986799896 -4 L 1124.842986799896 -1 L 624.173446524948 -1 Z"/><text text-anchor="middle" pointer-events="none" font-size="8px" fill="#000000" x="582.421493399948" y="3" transform="rotate(180 582.421493399948 0)" font-family="sans-serif">LEARNING_PATH_AI</text></g><g class="relationship" transform="translate(1330.981580839757 -273.06129675176436) rotate(442.8695552422109)"><path class="outline" fill="#569480" stroke="none" d="M 40 1 L 116.37552065595642 1 L 116.37552065595642 -1 L 40 -1 Z M 199.87942690595642 1 L 276.25494756191284 1 L 276.25494756191284 4 L 284.25494756191284 0 L 276.25494756191284 -4 L 276.25494756191284 -1 L 199.87942690595642 -1 Z"/><text text-anchor="middle" pointer-events="none" font-size="8px" fill="#000000" x="158.12747378095642" y="3" font-family="sans-serif">LEARNING_PATH_AI</text></g><g class="relationship" transform="translate(1371.2309408710034 48.68590220333758) rotate(486.82148150771644)"><path class="outline" fill="#A5ABB6" stroke="none" d="M 40 0.5 L 75.82432167000627 0.5 L 75.82432167000627 -0.5 L 40 -0.5 Z M 186.73447792000627 0.5 L 222.55879959001254 0.5 L 222.55879959001254 3.5 L 229.55879959001254 0 L 222.55879959001254 -3.5 L 222.55879959001254 -0.5 L 186.73447792000627 -0.5 Z"/><text text-anchor="middle" pointer-events="none" font-size="8px" fill="#000000" x="131.27939979500627" y="3" transform="rotate(180 131.27939979500627 0)" font-family="sans-serif">RESEARCH_DIRECTION_AI</text></g><g class="relationship" transform="translate(1371.2309408710034 48.68590220333758) rotate(463.62455578112395)"><path class="outline" fill="#A5ABB6" stroke="none" d="M 40 0.5 L 54.563221379125864 0.5 L 54.563221379125864 -0.5 L 40 -0.5 Z M 165.47337762912588 0.5 L 180.03659900825173 0.5 L 180.03659900825173 3.5 L 187.03659900825173 0 L 180.03659900825173 -3.5 L 180.03659900825173 -0.5 L 165.47337762912588 -0.5 Z"/><text text-anchor="middle" pointer-events="none" font-size="8px" fill="#000000" x="110.01829950412586" y="3" transform="rotate(180 110.01829950412586 0)" font-family="sans-serif">RESEARCH_DIRECTION_AI</text></g><g class="relationship" transform="translate(1371.2309408710034 48.68590220333758) rotate(434.9374456791944)"><path class="outline" fill="#A5ABB6" stroke="none" d="M 40 0.5 L 61.68556633889692 0.5 L 61.68556633889692 -0.5 L 40 -0.5 Z M 172.59572258889693 0.5 L 194.28128892779384 0.5 L 194.28128892779384 3.5 L 201.28128892779384 0 L 194.28128892779384 -3.5 L 194.28128892779384 -0.5 L 172.59572258889693 -0.5 Z"/><text text-anchor="middle" pointer-events="none" font-size="8px" fill="#000000" x="117.14064446389692" y="3" font-family="sans-serif">RESEARCH_DIRECTION_AI</text></g><g class="relationship" transform="translate(1371.2309408710034 48.68590220333758) rotate(414.2158049326443)"><path class="outline" fill="#A5ABB6" stroke="none" d="M 40 0.5 L 88.74292233910515 0.5 L 88.74292233910515 -0.5 L 40 -0.5 Z M 199.65307858910515 0.5 L 248.3960009282103 0.5 L 248.3960009282103 3.5 L 255.3960009282103 0 L 248.3960009282103 -3.5 L 248.3960009282103 -0.5 L 199.65307858910515 -0.5 Z"/><text text-anchor="middle" pointer-events="none" font-size="8px" fill="#000000" x="144.19800046410515" y="3" font-family="sans-serif">RESEARCH_DIRECTION_AI</text></g></g><g class="layer nodes"><g class="node" transform="translate(-492.61042023448573,-49.43113651371928)"><circle class="outline" cx="0" cy="0" r="40" fill="#F79767" stroke="#f36924" stroke-width="2px"/><text text-anchor="middle" pointer-events="none" font-family="sans-serif" dy="2.5" font-size="40" fill="#FFFFFF"/><text text-anchor="middle" pointer-events="none" y="5" font-size="10px" fill="#FFFFFF" font-family="sans-serif"> 自动化办公</text></g><g class="node" transform="translate(-154.47526922431229,-94.52496451720572)"><circle class="outline" cx="0" cy="0" r="40" fill="#F79767" stroke="#f36924" stroke-width="2px"/><text text-anchor="middle" pointer-events="none" font-family="sans-serif" dy="2.5" font-size="40" fill="#FFFFFF"/><text text-anchor="middle" pointer-events="none" y="5" font-size="10px" fill="#FFFFFF" font-family="sans-serif"> Web开发</text></g><g class="node" transform="translate(159.676820092129,192.1262657835)"><circle class="outline" cx="0" cy="0" r="40" fill="#F79767" stroke="#f36924" stroke-width="2px"/><text text-anchor="middle" pointer-events="none" font-family="sans-serif" dy="2.5" font-size="40" fill="#FFFFFF"/><text text-anchor="middle" pointer-events="none" y="5" font-size="10px" fill="#FFFFFF" font-family="sans-serif"> 爬虫</text></g><g class="node" transform="translate(486.59129925720606,487.9721918791273)"><circle class="outline" cx="0" cy="0" r="40" fill="#F79767" stroke="#f36924" stroke-width="2px"/><text text-anchor="middle" pointer-events="none" font-family="sans-serif" dy="2.5" font-size="40" fill="#FFFFFF"/><text text-anchor="middle" pointer-events="none" y="5" font-size="10px" fill="#FFFFFF" font-family="sans-serif"> 数据分析</text></g><g class="node" transform="translate(990.3956723399101,61.36065055384691)"><circle class="outline" cx="0" cy="0" r="40" fill="#F79767" stroke="#f36924" stroke-width="2px"/><text text-anchor="middle" pointer-events="none" font-family="sans-serif" dy="2.5" font-size="40" fill="#FFFFFF"/><text text-anchor="middle" pointer-events="none" y="5" font-size="10px" fill="#FFFFFF" font-family="sans-serif"> 人工智能</text></g><g class="node" transform="translate(981.4169931811467,335.61640274632464)"><circle class="outline" cx="0" cy="0" r="40" fill="#F79767" stroke="#f36924" stroke-width="2px"/><text text-anchor="middle" pointer-events="none" font-family="sans-serif" dy="2.5" font-size="40" fill="#FFFFFF"/><text text-anchor="middle" pointer-events="none" y="5" font-size="10px" fill="#FFFFFF" font-family="sans-serif"> 大数据</text></g><g class="node" transform="translate(-273.0570117163784,345.3594014362552)"><circle class="outline" cx="0" cy="0" r="40" fill="#D9C8AE" stroke="#c0a378" stroke-width="2px"/><text text-anchor="middle" pointer-events="none" font-family="sans-serif" dy="2.5" font-size="40" fill="#604A0E"/><text text-anchor="middle" pointer-events="none" y="5" font-size="10px" fill="#604A0E" font-family="sans-serif"> Python基础</text></g><g class="node" transform="translate(-628.1938660136119,455.18959012016444)"><circle class="outline" cx="0" cy="0" r="40" fill="#D9C8AE" stroke="#c0a378" stroke-width="2px"/><text text-anchor="middle" pointer-events="none" font-family="sans-serif" dy="2.5" font-size="40" fill="#604A0E"/><text text-anchor="middle" pointer-events="none" y="5" font-size="10px" fill="#604A0E" font-family="sans-serif"> 文件处理</text></g><g class="node" transform="translate(-329.98164614633816,501.2800522864516)"><circle class="outline" cx="0" cy="0" r="40" fill="#D9C8AE" stroke="#c0a378" stroke-width="2px"/><text text-anchor="middle" pointer-events="none" font-family="sans-serif" dy="2.5" font-size="40" fill="#604A0E"/><text text-anchor="middle" pointer-events="none" y="5" font-size="10px" fill="#604A0E" font-family="sans-serif"> Requests</text></g><g class="node" transform="translate(-232.10695083557596,943.2007013574826)"><circle class="outline" cx="0" cy="0" r="40" fill="#D9C8AE" stroke="#c0a378" stroke-width="2px"/><text text-anchor="middle" pointer-events="none" font-family="sans-serif" dy="2.5" font-size="40" fill="#604A0E"/><text text-anchor="middle" pointer-events="none" y="5" font-size="10px" fill="#604A0E" font-family="sans-serif"> MySQL</text></g><g class="node" transform="translate(-110.54451222058694,884.4969911137969)"><circle class="outline" cx="0" cy="0" r="40" fill="#D9C8AE" stroke="#c0a378" stroke-width="2px"/><text text-anchor="middle" pointer-events="none" font-family="sans-serif" dy="2.5" font-size="40" fill="#604A0E"/><text text-anchor="middle" pointer-events="none" y="5" font-size="10px" fill="#604A0E" font-family="sans-serif"> MongoDB</text></g><g class="node" transform="translate(82.2673701622746,763.3464903131913)"><circle class="outline" cx="0" cy="0" r="40" fill="#D9C8AE" stroke="#c0a378" stroke-width="2px"/><text text-anchor="middle" pointer-events="none" font-family="sans-serif" dy="2.5" font-size="40" fill="#604A0E"/><text text-anchor="middle" pointer-events="none" y="5" font-size="10px" fill="#604A0E" font-family="sans-serif"> HBase</text></g><g class="node" transform="translate(127.10235911310681,596.5513370836563)"><circle class="outline" cx="0" cy="0" r="40" fill="#D9C8AE" stroke="#c0a378" stroke-width="2px"/><text text-anchor="middle" pointer-events="none" font-family="sans-serif" dy="2.5" font-size="40" fill="#604A0E"/><text text-anchor="middle" pointer-events="none" y="5" font-size="10px" fill="#604A0E" font-family="sans-serif"> Hive</text></g><g class="node" transform="translate(-844.8862266334186,643.048136421515)"><circle class="outline" cx="0" cy="0" r="40" fill="#D9C8AE" stroke="#c0a378" stroke-width="2px"/><text text-anchor="middle" pointer-events="none" font-family="sans-serif" dy="2.5" font-size="40" fill="#604A0E"/><text text-anchor="middle" pointer-events="none" y="5" font-size="10px" fill="#604A0E" font-family="sans-serif"> Flask</text></g><g class="node" transform="translate(-643.4243118886889,654.8495767993584)"><circle class="outline" cx="0" cy="0" r="40" fill="#D9C8AE" stroke="#c0a378" stroke-width="2px"/><text text-anchor="middle" pointer-events="none" font-family="sans-serif" dy="2.5" font-size="40" fill="#604A0E"/><text text-anchor="middle" pointer-events="none" y="5" font-size="10px" fill="#604A0E" font-family="sans-serif"> Django</text></g><g class="node" transform="translate(-503.7717385414166,637.455881568844)"><circle class="outline" cx="0" cy="0" r="40" fill="#D9C8AE" stroke="#c0a378" stroke-width="2px"/><text text-anchor="middle" pointer-events="none" font-family="sans-serif" dy="2.5" font-size="40" fill="#604A0E"/><text text-anchor="middle" pointer-events="none" y="5" font-size="10px" fill="#604A0E" font-family="sans-serif"> bs4</text></g><g class="node" transform="translate(-356.1238463373697,699.4939772841776)"><circle class="outline" cx="0" cy="0" r="40" fill="#D9C8AE" stroke="#c0a378" stroke-width="2px"/><text text-anchor="middle" pointer-events="none" font-family="sans-serif" dy="2.5" font-size="40" fill="#604A0E"/><text text-anchor="middle" pointer-events="none" y="5" font-size="10px" fill="#604A0E" font-family="sans-serif"> Scrapy</text></g><g class="node" transform="translate(178.96396732028415,-53.02473200263128)"><circle class="outline" cx="0" cy="0" r="40" fill="#D9C8AE" stroke="#c0a378" stroke-width="2px"/><text text-anchor="middle" pointer-events="none" font-family="sans-serif" dy="2.5" font-size="40" fill="#604A0E"/><text text-anchor="middle" pointer-events="none" y="5" font-size="10px" fill="#604A0E" font-family="sans-serif"> Linux</text></g><g class="node" transform="translate(270.0587139033639,312.60329526860653)"><circle class="outline" cx="0" cy="0" r="40" fill="#D9C8AE" stroke="#c0a378" stroke-width="2px"/><text text-anchor="middle" pointer-events="none" font-family="sans-serif" dy="2.5" font-size="40" fill="#604A0E"/><text text-anchor="middle" pointer-events="none" y="5" font-size="10px" fill="#604A0E" font-family="sans-serif"> Windows办公…</text></g><g class="node" transform="translate(556.4369841882653,251.27082060991222)"><circle class="outline" cx="0" cy="0" r="40" fill="#D9C8AE" stroke="#c0a378" stroke-width="2px"/><text text-anchor="middle" pointer-events="none" font-family="sans-serif" dy="2.5" font-size="40" fill="#604A0E"/><text text-anchor="middle" pointer-events="none" y="5" font-size="10px" fill="#604A0E" font-family="sans-serif"> 所属行业的业…</text></g><g class="node" transform="translate(513.3368627490892,-60.924552152424326)"><circle class="outline" cx="0" cy="0" r="40" fill="#D9C8AE" stroke="#c0a378" stroke-width="2px"/><text text-anchor="middle" pointer-events="none" font-family="sans-serif" dy="2.5" font-size="40" fill="#604A0E"/><text text-anchor="middle" pointer-events="none" y="5" font-size="10px" fill="#604A0E" font-family="sans-serif"> 统计</text></g><g class="node" transform="translate(-1.9571622389916001,221.72766506474562)"><circle class="outline" cx="0" cy="0" r="40" fill="#D9C8AE" stroke="#c0a378" stroke-width="2px"/><text text-anchor="middle" pointer-events="none" font-family="sans-serif" dy="2.5" font-size="40" fill="#604A0E"/><text text-anchor="middle" pointer-events="none" y="5" font-size="10px" fill="#604A0E" font-family="sans-serif"> 网络</text></g><g class="node" transform="translate(67.88980584013368,105.7841770537494)"><circle class="outline" cx="0" cy="0" r="40" fill="#D9C8AE" stroke="#c0a378" stroke-width="2px"/><text text-anchor="middle" pointer-events="none" font-family="sans-serif" dy="2.5" font-size="40" fill="#604A0E"/><text text-anchor="middle" pointer-events="none" y="5" font-size="10px" fill="#604A0E" font-family="sans-serif"> HTML</text></g><g class="node" transform="translate(-74.58502636351314,87.23142608107497)"><circle class="outline" cx="0" cy="0" r="40" fill="#D9C8AE" stroke="#c0a378" stroke-width="2px"/><text text-anchor="middle" pointer-events="none" font-family="sans-serif" dy="2.5" font-size="40" fill="#604A0E"/><text text-anchor="middle" pointer-events="none" y="5" font-size="10px" fill="#604A0E" font-family="sans-serif"> XPath</text></g><g class="node" transform="translate(-10.304963293530434,-13.651661344429364)"><circle class="outline" cx="0" cy="0" r="40" fill="#D9C8AE" stroke="#c0a378" stroke-width="2px"/><text text-anchor="middle" pointer-events="none" font-family="sans-serif" dy="2.5" font-size="40" fill="#604A0E"/><text text-anchor="middle" pointer-events="none" y="5" font-size="10px" fill="#604A0E" font-family="sans-serif"> CSS</text></g><g class="node" transform="translate(756.5909083366581,549.2135451541426)"><circle class="outline" cx="0" cy="0" r="40" fill="#F16667" stroke="#eb2728" stroke-width="2px"/><text text-anchor="middle" pointer-events="none" font-family="sans-serif" dy="2.5" font-size="40" fill="#FFFFFF"/><text text-anchor="middle" pointer-events="none" y="5" font-size="10px" fill="#FFFFFF" font-family="sans-serif"> 离线计算</text></g><g class="node" transform="translate(1117.695293692424,579.7984778141149)"><circle class="outline" cx="0" cy="0" r="40" fill="#F16667" stroke="#eb2728" stroke-width="2px"/><text text-anchor="middle" pointer-events="none" font-family="sans-serif" dy="2.5" font-size="40" fill="#FFFFFF"/><text text-anchor="middle" pointer-events="none" y="5" font-size="10px" fill="#FFFFFF" font-family="sans-serif"> 实时计算</text></g><g class="node" transform="translate(657.2949556384441,673.2714474503875)"><circle class="outline" cx="0" cy="0" r="40" fill="#D9C8AE" stroke="#c0a378" stroke-width="2px"/><text text-anchor="middle" pointer-events="none" font-family="sans-serif" dy="2.5" font-size="40" fill="#604A0E"/><text text-anchor="middle" pointer-events="none" y="5" font-size="10px" fill="#604A0E" font-family="sans-serif"> Scala</text></g><g class="node" transform="translate(823.6046097496418,819.1298852509163)"><circle class="outline" cx="0" cy="0" r="40" fill="#D9C8AE" stroke="#c0a378" stroke-width="2px"/><text text-anchor="middle" pointer-events="none" font-family="sans-serif" dy="2.5" font-size="40" fill="#604A0E"/><text text-anchor="middle" pointer-events="none" y="5" font-size="10px" fill="#604A0E" font-family="sans-serif"> Hadoop</text></g><g class="node" transform="translate(647.1151272470548,936.8294597428727)"><circle class="outline" cx="0" cy="0" r="40" fill="#D9C8AE" stroke="#c0a378" stroke-width="2px"/><text text-anchor="middle" pointer-events="none" font-family="sans-serif" dy="2.5" font-size="40" fill="#604A0E"/><text text-anchor="middle" pointer-events="none" y="5" font-size="10px" fill="#604A0E" font-family="sans-serif"> Spark</text></g><g class="node" transform="translate(1134.866324718658,753.8909139272336)"><circle class="outline" cx="0" cy="0" r="40" fill="#D9C8AE" stroke="#c0a378" stroke-width="2px"/><text text-anchor="middle" pointer-events="none" font-family="sans-serif" dy="2.5" font-size="40" fill="#604A0E"/><text text-anchor="middle" pointer-events="none" y="5" font-size="10px" fill="#604A0E" font-family="sans-serif"> JAVA</text></g><g class="node" transform="translate(1142.430393232026,944.0042399180551)"><circle class="outline" cx="0" cy="0" r="40" fill="#D9C8AE" stroke="#c0a378" stroke-width="2px"/><text text-anchor="middle" pointer-events="none" font-family="sans-serif" dy="2.5" font-size="40" fill="#604A0E"/><text text-anchor="middle" pointer-events="none" y="5" font-size="10px" fill="#604A0E" font-family="sans-serif"> FLink</text></g><g class="node" transform="translate(1337.0852095232224,939.2682699181747)"><circle class="outline" cx="0" cy="0" r="40" fill="#D9C8AE" stroke="#c0a378" stroke-width="2px"/><text text-anchor="middle" pointer-events="none" font-family="sans-serif" dy="2.5" font-size="40" fill="#604A0E"/><text text-anchor="middle" pointer-events="none" y="5" font-size="10px" fill="#604A0E" font-family="sans-serif"> flume</text></g><g class="node" transform="translate(1447.3197567525153,825.8162968048442)"><circle class="outline" cx="0" cy="0" r="40" fill="#D9C8AE" stroke="#c0a378" stroke-width="2px"/><text text-anchor="middle" pointer-events="none" font-family="sans-serif" dy="2.5" font-size="40" fill="#604A0E"/><text text-anchor="middle" pointer-events="none" y="5" font-size="10px" fill="#604A0E" font-family="sans-serif"> Kafka</text></g><g class="node" transform="translate(1440.333326681145,709.9029331213625)"><circle class="outline" cx="0" cy="0" r="40" fill="#D9C8AE" stroke="#c0a378" stroke-width="2px"/><text text-anchor="middle" pointer-events="none" font-family="sans-serif" dy="2.5" font-size="40" fill="#604A0E"/><text text-anchor="middle" pointer-events="none" y="5" font-size="10px" fill="#604A0E" font-family="sans-serif"> Storm</text></g><g class="node" transform="translate(803.2477715385746,-4.027354807261929)"><circle class="outline" cx="0" cy="0" r="40" fill="#D9C8AE" stroke="#c0a378" stroke-width="2px"/><text text-anchor="middle" pointer-events="none" font-family="sans-serif" dy="2.5" font-size="40" fill="#604A0E"/><text text-anchor="middle" pointer-events="none" y="5" font-size="10px" fill="#604A0E" font-family="sans-serif"> 高数</text></g><g class="node" transform="translate(1330.981580839757,-273.06129675176436)"><circle class="outline" cx="0" cy="0" r="40" fill="#D9C8AE" stroke="#c0a378" stroke-width="2px"/><text text-anchor="middle" pointer-events="none" font-family="sans-serif" dy="2.5" font-size="40" fill="#604A0E"/><text text-anchor="middle" pointer-events="none" y="5" font-size="10px" fill="#604A0E" font-family="sans-serif"> 机器学习</text></g><g class="node" transform="translate(1371.2309408710034,48.68590220333758)"><circle class="outline" cx="0" cy="0" r="40" fill="#D9C8AE" stroke="#c0a378" stroke-width="2px"/><text text-anchor="middle" pointer-events="none" font-family="sans-serif" dy="2.5" font-size="40" fill="#604A0E"/><text text-anchor="middle" pointer-events="none" y="5" font-size="10px" fill="#604A0E" font-family="sans-serif"> 深度学习</text></g><g class="node" transform="translate(1209.6779451214265,264.4695345778663)"><circle class="outline" cx="0" cy="0" r="40" fill="#F16667" stroke="#eb2728" stroke-width="2px"/><text text-anchor="middle" pointer-events="none" font-family="sans-serif" dy="2.5" font-size="40" fill="#FFFFFF"/><text text-anchor="middle" pointer-events="none" y="5" font-size="10px" fill="#FFFFFF" font-family="sans-serif"> 视觉</text></g><g class="node" transform="translate(1317.7505052469762,269.33372180438863)"><circle class="outline" cx="0" cy="0" r="40" fill="#F16667" stroke="#eb2728" stroke-width="2px"/><text text-anchor="middle" pointer-events="none" font-family="sans-serif" dy="2.5" font-size="40" fill="#FFFFFF"/><text text-anchor="middle" pointer-events="none" y="5" font-size="10px" fill="#FFFFFF" font-family="sans-serif"> 语音</text></g><g class="node" transform="translate(1433.9335461969197,281.6774120744054)"><circle class="outline" cx="0" cy="0" r="40" fill="#F16667" stroke="#eb2728" stroke-width="2px"/><text text-anchor="middle" pointer-events="none" font-family="sans-serif" dy="2.5" font-size="40" fill="#FFFFFF"/><text text-anchor="middle" pointer-events="none" y="5" font-size="10px" fill="#FFFFFF" font-family="sans-serif"> NLP</text></g><g class="node" transform="translate(1543.959003128726,288.3185666568122)"><circle class="outline" cx="0" cy="0" r="40" fill="#F16667" stroke="#eb2728" stroke-width="2px"/><text text-anchor="middle" pointer-events="none" font-family="sans-serif" dy="2.5" font-size="40" fill="#FFFFFF"/><text text-anchor="middle" pointer-events="none" y="5" font-size="10px" fill="#FFFFFF" font-family="sans-serif"> 推荐</text></g></g></svg>